<svg width="53" height="53" viewBox="0 0 53 53" fill="none" xmlns="http://www.w3.org/2000/svg">
<g clip-path="url(#clip0_11_62)">
<path d="M7.83958 42.1571L10.9533 45.2708L14.9063 41.2958L11.7925 38.1821L7.83958 42.1571ZM24.2917 44.1667H28.7083V50.7917H24.2917V44.1667ZM2.20833 24.2917H8.83333V28.7083H2.20833V24.2917ZM28.7083 8.94375V17.6888L30.9167 18.9696C33.655 20.5596 35.3333 23.4746 35.3333 26.6104C35.3333 31.4908 31.3804 35.4437 26.5 35.4437C21.6196 35.4437 17.6667 31.4908 17.6667 26.6104C17.6667 23.4746 19.3671 20.5596 22.0833 18.9696L24.2917 17.6888V8.94375H28.7083ZM33.125 4.52708H19.875V15.1492C15.9221 17.4458 13.25 21.7079 13.25 26.6104C13.25 33.92 19.1904 39.8604 26.5 39.8604C33.8096 39.8604 39.75 33.92 39.75 26.6104C39.75 21.7079 37.0779 17.4458 33.125 15.1492V4.52708ZM44.1667 24.2917H50.7917V28.7083H44.1667V24.2917ZM38.0717 41.3179L42.0246 45.2929L45.1383 42.1792L41.1633 38.2262L38.0717 41.3179Z" fill="#A89C98"/>
</g>
<defs>
<clipPath id="clip0_11_62">
<rect width="53" height="53" fill="white"/>
</clipPath>
</defs>
</svg>
